<?xml version="1.0" encoding="UTF-8"?><svg id="a" xmlns="http://www.w3.org/2000/svg" width="1239.1" height="525.9" viewBox="0 0 1239.1 525.9"><defs><style>.b{fill:#fff;}</style></defs><path class="b" d="M106.3,215.7c1.3.1,2.7.3,4.2.4,1.3.1,2.7.2,4.2.2,1.6,0,3.2,0,4.8,0,2.6,0,6.1-.3,10.5-.9,4.4-.6,10-.9,16.9-.9s12.3.9,17.7,2.8c5.4,1.9,10.1,4.6,14.1,8.2s7.1,8,9.3,13.1c2.2,5.1,3.3,11,3.3,17.6s-1.8,16.5-5.3,22.9c-3.5,6.4-8.2,11.7-14.1,15.6-5.9,4-12.7,6.7-20.4,8.1-6.8,1.3-13.8,1.5-21.2.6s-3,1.1-3,2.7v13.4c0,5.6,0,10.6.2,14.8.2,4.2.4,7.9.6,10.9.2,3.1.5,5.6.9,7.7.4,2.1.7,3.8,1.1,5.2v.4h-23.9v-.4c.4-1.4.8-3.1,1.1-5.2.4-2.1.7-4.6.9-7.7.3-3.1.5-6.7.6-10.9.1-4.2.2-9.1.2-14.8v-64.8c0-5.6,0-10.6-.2-14.8-.1-4.2-.3-7.9-.6-11-.3-3.1-.6-5.7-.9-7.7-.4-2.1-.7-3.8-1.1-5.2v-.4ZM127.3,293c0,1.3,1,2.5,2.3,2.7,5.6.8,10.8.8,15.6,0,5.4-1,10.1-3,13.9-6.2,3.9-3.2,6.9-7.4,9.1-12.8,2.2-5.4,3.2-12,3.2-19.7s-.6-10.3-1.7-14.7c-1.1-4.4-2.8-8.2-5-11.3-2.2-3.1-5-5.5-8.4-7.2s-7.3-2.5-11.9-2.5-5.3.1-7.5.3c-2.1.2-3.9.5-5.4.7-.8.2-1.5.3-2.2.5-1.2.3-2.1,1.4-2.1,2.7v67.4Z"/><path class="b" d="M267.4,326.4l3.1,6.4c.6,1.3,1.4,3,2.3,5,1,2,1.9,4.1,2.8,6.2.9,2.2,1.7,4.3,2.3,6.3.6,2.1.9,3.8.9,5.3v1.4c0,.4,0,.9-.2,1.4h25.5v-.4c-.3-.3-1-1.1-2-2.6s-2.2-3.4-3.5-5.7c-1.3-2.3-2.8-4.9-4.3-7.8-1.6-2.9-3.1-6-4.6-9.2l-39.1-82.3c-.5-1-1.4-1.6-2.5-1.6h-4c-1.1,0-2,.6-2.5,1.6l-39.9,82.3c-1.5,3.1-2.9,6-4.4,8.9-1.5,2.9-2.9,5.4-4.2,7.7-1.3,2.3-2.4,4.2-3.4,5.7-1,1.6-1.7,2.6-2.2,3v.4h17.5v-.4c-.1-.2-.2-.5-.3-.8,0-.4,0-.9,0-1.6,0-1.1.2-2.3.5-3.6.3-1.3.9-2.8,1.6-4.6.7-1.8,1.7-3.9,2.8-6.2,1.1-2.4,2.5-5.1,4.1-8.3l2.9-6.2,6.5-13.5,16.8-35c1-2.1,4-2.1,5,0l16.3,34.8"/><path class="b" d="M352.7,314.4c-.6-.8-1.5-1.2-2.5-1.1s-1.6.1-2.4.2c-1.3,0-2.6,0-3.9,0s-2.2,0-3.5,0c-.3,0-.6,0-.9,0-1.6-.1-2.9,1.2-2.9,2.7v1.9c0,5.9,0,11.1.2,15.5.1,4.4.3,8.2.5,11.4.2,3.2.5,5.9.8,8,.3,2.2.7,3.9,1.2,5.3v.4h-23v-.4c.5-1.4.9-3.2,1.2-5.4.4-2.2.7-4.9.9-8.1.2-3.2.4-7.1.5-11.5.1-4.4.2-9.7.2-15.6v-25.1c0-6,0-11.2-.2-15.6-.1-4.4-.3-8.2-.5-11.5-.2-3.2-.5-5.9-.9-8.1-.4-2.2-.8-4-1.2-5.4v-.4c1.1,0,2.2.1,3.4.2,1,0,2.1.1,3.3.1,1.2,0,2.5,0,3.7,0,2.1,0,5.3-.2,9.5-.6s9.1-.6,14.7-.6,10.9.7,15.6,2.1,8.7,3.4,12.1,6c3.4,2.6,5.9,5.7,7.8,9.5,1.8,3.7,2.7,7.9,2.7,12.4s-.5,6.9-1.5,9.8c-1,3-2.4,5.6-4.2,8-1.8,2.4-3.9,4.4-6.4,6.2-1.6,1.2-3.4,2.3-5.3,3.3s-2,2.7-1,4l18.9,26.7c1.8,2.4,3.6,4.7,5.4,6.9,1.8,2.2,3.6,4.2,5.2,5.9,1.7,1.7,3.2,3.2,4.7,4.3,1.5,1.2,2.7,1.9,3.7,2.3v.4h-24.1c-1.1,0-2.1-.7-2.5-1.7s-.4-.9-.8-1.5c-.8-1.5-1.8-3.1-2.9-4.7-1.1-1.6-2.2-3.2-3.3-4.7-1.1-1.5-1.9-2.7-2.4-3.4l-20.1-28.2ZM336.5,304.1c0,1.4,1.1,2.6,2.5,2.8s1,0,1.5.1c1.4,0,2.7.1,3.9.1,8.3,0,14.6-2.2,18.9-6.7,4.3-4.4,6.4-11.1,6.4-20s-1.7-13.1-5.1-17.3c-3.4-4.2-8.5-6.4-15.1-6.4s-4,0-5.6.2c-1.6.2-3,.3-4.1.5-.4,0-.8.2-1.1.2-1.3.3-2.2,1.4-2.2,2.7v43.6Z"/><path class="b" d="M421,292.4c0-6,0-11.2-.2-15.6-.1-4.4-.3-8.2-.5-11.5-.2-3.2-.5-5.9-.9-8.1-.4-2.2-.8-4-1.2-5.4v-.4h23v.4c-.5,1.4-.9,3.2-1.2,5.4-.3,2.2-.6,4.9-.8,8.1-.2,3.2-.4,7-.5,11.5-.1,4.4-.2,9.6-.2,15.6v.7c0,2.3,2.7,3.6,4.5,2.1l41-33.7c2.5-2.1,4.4-3.9,5.7-5.5s1.3-1.9,1.6-2.8,1.4-1.9,2.6-1.9h21.4v.4c-3,.7-6.1,2.1-9.2,4-3.2,1.9-6.5,4.3-10,7.3l-37.4,30.7c-1.2,1-1.4,2.9-.2,4l39.4,40.9c5.5,5.8,10.2,10.2,14,13.2,3.8,3,6.8,5.1,8.8,6.2v.4h-25.6c-.9,0-1.7-.4-2.2-1.1-.9-1.2-2.2-2.8-4-4.7s-5.5-5.9-9.5-10.1l-36.2-37.7c-1.7-1.8-4.7-.6-4.7,1.9v10.7c0,6,0,11.2.2,15.6.1,4.4.3,8.3.5,11.5.2,3.2.5,5.9.8,8.1.3,2.2.7,4,1.2,5.4v.4h-23v-.4c.5-1.4.9-3.2,1.2-5.4.4-2.2.7-4.9.9-8.1.2-3.2.4-7.1.5-11.5.1-4.4.2-9.7.2-15.6v-25.1Z"/><path class="b" d="M550.6,348v-55.6c0-6,0-11.2.2-15.6.1-4.4.3-8.2.5-11.5.2-3.2.5-5.9.8-8.1.3-2.2.7-4,1.2-5.4v-.4h-23v.4c.5,1.4.9,3.2,1.2,5.4.4,2.2.7,4.9.9,8.1.2,3.2.4,7,.5,11.5.1,4.4.2,9.6.2,15.6v25.1c0,6,0,11.2-.2,15.6-.1,4.4-.3,8.3-.5,11.5-.2,3.2-.5,5.9-.9,8.1-.4,2.2-.8,4-1.2,5.4v.4h26.9"/><path class="b" d="M676.8,326.4l3.1,6.4c.6,1.3,1.4,3,2.3,5,1,2,1.9,4.1,2.8,6.2.9,2.2,1.7,4.3,2.3,6.3.6,2.1.9,3.8.9,5.3v1.4c0,.4,0,.9-.2,1.4h25.5v-.4c-.3-.3-1-1.1-2-2.6s-2.2-3.4-3.5-5.7c-1.3-2.3-2.8-4.9-4.3-7.8-1.6-2.9-3.1-6-4.6-9.2l-39.1-82.3c-.5-1-1.4-1.6-2.5-1.6h-4c-1.1,0-2,.6-2.5,1.6l-39.9,82.3c-1.5,3.1-2.9,6-4.4,8.9-1.5,2.9-2.9,5.4-4.2,7.7-1.3,2.3-2.4,4.2-3.4,5.7-1,1.6-1.7,2.6-2.2,3v.4h17.5v-.4c-.1-.2-.2-.5-.3-.8,0-.4,0-.9,0-1.6,0-1.1.2-2.3.5-3.6.3-1.3.9-2.8,1.6-4.6.7-1.8,1.7-3.9,2.8-6.2,1.1-2.4,2.5-5.1,4.1-8.3l2.9-6.2,6.5-13.5,16.8-35c1-2.1,4-2.1,5,0l16.3,34.8"/><path class="b" d="M818.6,359.9h0c-.7,0-1.4-.3-1.9-.8l-73.7-72.5c-1.7-1.7-4.7-.5-4.7,2v28.9c0,6,0,11.2,0,15.6,0,4.4.2,8.3.3,11.5.2,3.2.4,5.9.7,8.1s.7,4,1.1,5.4v.4h-14.9v-.4c.5-1.4.9-3.2,1.2-5.4.3-2.2.6-4.9.8-8.1.2-3.2.3-7.1.4-11.5,0-4.4,0-9.7,0-15.6v-25.1c0-6,0-11.2,0-15.6,0-4.4-.2-8.2-.4-11.5-.2-3.2-.5-5.9-.8-8.1-.3-2.2-.7-4-1.2-5.4v-.4h5c.7,0,1.4.3,1.9.8l73.8,72.9c1.7,1.7,4.7.5,4.7-2v-30.8c0-6,0-11.2,0-15.6,0-4.4-.2-8.2-.3-11.5-.2-3.2-.4-5.9-.6-8.1-.3-2.2-.6-4-1.1-5.4v-.4h14.8v.4c-.5,1.4-.8,3.2-1.1,5.4s-.5,4.9-.7,8.1c-.2,3.2-.3,7-.4,11.5,0,4.4,0,9.6,0,15.6v64.8c0,1.5-1.2,2.8-2.8,2.8Z"/><path class="b" d="M849.8,251.3c1.6,0,3.1,0,4.5,0,1.2,0,2.4,0,3.5,0h2.5c.9,0,2.6,0,5,0,2.4,0,5.1-.1,8.1-.2,3,0,6.2-.2,9.6-.3,3.4,0,6.5-.1,9.3-.1,7.8,0,15.2.9,22.2,2.7,7,1.8,13.2,4.7,18.6,8.8,5.3,4.1,9.6,9.4,12.7,16,3.1,6.6,4.7,14.8,4.7,24.5s-1.8,19.3-5.4,26.5c-3.6,7.2-8.4,13.1-14.5,17.7-6.1,4.5-13.2,7.8-21.3,9.9s-16.6,3-25.5,3-4.8,0-8-.2c-3.2-.1-6.4-.3-9.8-.4-3.3-.1-6.5-.3-9.4-.4-3-.1-5.2-.2-6.7-.2v-.4c.5-1.4.9-3.2,1.2-5.4.4-2.2.7-4.9.9-8.1.2-3.2.4-7.1.5-11.5.1-4.4.2-9.7.2-15.6v-25.1c0-6,0-11.2-.2-15.6-.1-4.4-.3-8.3-.5-11.6-.2-3.3-.5-6-.9-8.2-.4-2.2-.8-4-1.2-5.4v-.4ZM872.9,258.4c-1.4.1-2.5,1.3-2.5,2.7,0,4.6-.1,9-.2,13.3,0,2.2,0,4.4,0,6.7,0,2.3,0,4.6,0,6.8,0,2.3,0,4.4,0,6.4v5.4c0,3.3,0,7.3,0,12,0,4.7,0,9.5.1,14.4,0,4.9.2,9.6.3,14.2.1,3.5.2,6.5.4,9.1s1.1,2.4,2.5,2.6.2,0,.3,0c1.1,0,2.2.2,3.3.3,1.2,0,2.3.2,3.4.2,1.1,0,2.1,0,2.9,0,3.7,0,7.4-.2,11.1-.7,3.8-.5,7.4-1.3,10.9-2.6s6.8-3.1,9.8-5.3c3.1-2.3,5.7-5.2,8-8.7,2.3-3.6,4.1-7.8,5.4-12.8,1.3-5,1.9-10.9,1.9-17.8,0-15.1-3.6-26.7-10.8-34.9-7.2-8.2-17.9-12.3-32.2-12.3s-2.9,0-4.4,0c-1.6,0-3.1.1-4.6.2-1.5,0-3,.2-4.3.3-.4,0-.7,0-1.1.1Z"/><path class="b" d="M1019.9,272.3h-.1c-1.1,0-2.1-.6-2.5-1.6s-.8-1.7-1.3-2.7c-.9-1.7-2.1-3.4-3.6-5.1-1.5-1.7-3.3-3.1-5.5-4.2-2.2-1.2-4.8-1.7-7.9-1.7s-4.4.4-6.2,1.1c-1.8.8-3.4,1.8-4.6,3.1-1.3,1.3-2.2,2.9-2.9,4.7-.7,1.8-1,3.8-1,5.9,0,3.5,1,6.7,3.1,9.9,2.1,3.1,4.7,6.2,7.8,9.3,3.1,3.1,6.5,6.2,10.2,9.3,3.7,3.1,7,6.4,10.2,9.8,3.1,3.4,5.7,7,7.8,10.8s3.1,7.8,3.1,12.2-.6,6.5-1.7,9.9c-1.2,3.4-3,6.4-5.6,9.2-2.6,2.7-5.9,5-10,6.7-4.1,1.8-9,2.6-14.7,2.6s-6.2-.3-9.1-.8c-2.9-.5-5.5-1.2-8-1.9-2.4-.8-4.6-1.6-6.5-2.5s-2.2-1.1-3.2-1.6-1.5-1.6-1.4-2.7l1.6-17.1h0c1.1,0,2.2.7,2.6,1.8.6,1.7,1.4,3.5,2.4,5.2,1.3,2.3,2.9,4.4,4.8,6.3s4.1,3.4,6.7,4.6c2.6,1.2,5.5,1.7,8.8,1.7s4.5-.4,6.6-1.1c2.1-.8,3.8-1.8,5.3-3.2s2.7-3.1,3.5-5.1c.9-2,1.3-4.3,1.3-6.8s-.6-5.8-1.8-8.3c-1.2-2.6-2.8-5-4.8-7.4-2-2.4-4.2-4.6-6.7-6.8s-5.1-4.4-7.7-6.7c-2.7-2.3-5.2-4.6-7.7-6.9-2.5-2.4-4.7-4.9-6.7-7.6-2-2.7-3.6-5.6-4.8-8.7-1.2-3.1-1.8-6.5-1.8-10.2s.8-7.4,2.5-10.6c1.7-3.1,3.9-5.8,6.6-7.9,2.7-2.2,5.8-3.8,9.4-5,3.5-1.2,7.2-1.7,11-1.7s5.4.2,7.8.6c2.4.4,4.6.9,6.6,1.4,2,.6,3.7,1.1,5.1,1.7.6.2,1.2.5,1.8.7,1.1.4,1.8,1.5,1.8,2.7l-.4,14.9Z"/><path class="b" d="M196.1,351.7c22.1-25.3,52.4-45.4,86.5-47.6,14.3-1.2,28.8-1.1,42.8,2.5,3.6,1.3,9.4,2.2,10.4,6.8,0,0-7,.5-7,.5.2.6.5.7.5.6,0,0,0-.3-.2-.5-1.2-1.5-3.3-2.4-5.2-3.2-38.2-13.9-82.9,1.9-108.2,32.6-3.9,4.7-7.5,9.6-10.5,14.9l-9.1-6.7h0Z"/><path class="b" d="M547.2,351.2c36.2-36.4,79.8-48.2,128.6-31.4,3,1,5.9,2.1,8.9,3.4l-3.9,7c-4.8-3.4-10.1-6.2-15.6-8.5-33.4-14.3-75.2-7.1-98.4,21.9-3.7,4.6-6.9,9.6-9.2,14.9,0,0-10.4-7.4-10.4-7.4h0Z"/><text/><path class="b" d="M1056.9,254.9c-6.6,2-12.9.2-20.5-1.7-2.1-.5-15-4-26.7-13.7-21.8-18.1-24.8-45.9-25.3-51.8-3.5-29.5,11.8-53.5,14.2-57.5,3.3-5.6,7.5-10.8,11.8-21.3,5.7-13.9,9.7-26.2,11.6-26.9,2.4-.9,23.8,17.4,28.4,22.1,25.3,26,31.7,56.5,32.8,62,4.9,25.1.5,44-.9,49.5-2.5,9.8-5.3,20-11.2,28.3s-7.1,9-11.9,10.1-4.7-2.8-6.5-5.5-4.1-6.8-5.5-10.5c-1.8-4.8-8.2-25.4-9.2-30.4-4.6-22.7-5.1-29.2-8.5-52.6-2.7,28.5-1.6,57.9,9,76.1,2.1,3.6,5.5,7.3,7,11.2,1.7,4.4,3.8,8.7,6.2,12.8"/><path class="b" d="M1079,250.3c6.9-13.5,5.1-28.3,4.1-28.5-1.1-.2.6,12.2-9.5,27.4-4.8,7.3-15.1,19.6-23.7,18.8-8.9-.9-13.7-14-14.7-16.5-4.7-11.2-1.5-21.6,1-29.5,4.2-13.6,12-22.4,15.6-26.1,6.7-6.8,14.7-12.7,33.2-20.8,15.2-6.7,23.1-7.2,27.9-7.9,8.1-1.2,15.2,0,20,.3-.9,3.7-2.1,9.5-3.4,16.5-5.1,27.5-3.1,32.6-6.9,45-1.9,6-7.4,23.8-23.5,35.1-16.2,11.4-37.4,12-39.2,7.7-1.5-3.4,11.5-6.4,19.2-21.5Z"/><path class="b" d="M737.6,394.6c-6.9.1-13.1,0-19.7,0h-2c-.2,0-.3,0-.7,0-.6,0-.5-.2-.5-.1,0,5.5,0,4.1-.2,9.7-.3,8.4-.1,16.9-.1,25.3s-.5,6.9-.5,10.2v.2c0,.3-.1.9-.4,1.5-.1.4-.8,1.3-2.2,1.3s-1.3-.3-1.5-.5l-.6-.8c-.3-.4-.5-1-.6-1.3-.4-1.5-.4-3.1-.4-4.6-.1-5.9-.1-12.1-.1-18s0-12.4.1-18.5c.3-5,.4-10,.4-15s-.3-7.8-.6-11.6v-.4c0-1.6,1.7-2.3,3.2-2.3,2.3,0,2.7,1.4,2.8,1.9.5,2.6-.2,15.6.5,17.8h3.6c5.2-.2,7.4.2,13.3.2s5-.2,6.9-.1l.6-18.2c0-.2.1-.5.1-.8.3-.6.9-1.5,2.3-1.5s2.3.5,2.6,1.4c.1.3.1.6.1.9v.5c0,3.1.4,5.9.4,8.9,0,4.2-.4,8.4-.6,12.5-.4,5.7-.3,11.5-.3,17,0,8.3-.4,16.5-.9,24.8,0,1.1-.4,3.3-.9,4.4-.3.3-.8,1.2-1.9,1.2s-1.7-.6-1.9-1c-.4-.4-.5-.9-.6-1.3-.4-.9-.4-1.9-.4-2.4,0-3.9,0-7.7.3-11.6.4-6.8.3-13.4.4-20"/><path class="b" d="M764.8,399.8c0-9.6,3.6-31.9,19.8-31.9s21.8,25.8,21.8,35.7-2,22.2-9.3,29.9c-2.2,2.3-5.4,4.8-10.1,4.8s-8.2-2.4-10.6-4.6c-8.8-8.9-11.5-23.3-11.5-33.9ZM786.7,433.4c1,0,1.9-.2,2.8-.8,8.6-4.9,10.9-19.5,10.9-27.6s-2.7-25.5-11.8-30.5c-1.4-.8-2.6-1.2-4.1-1.2-2.6,0-4.4,1.2-6.1,3-5.9,5.8-7.6,17-7.6,24.6s3.2,26.1,13.2,31.8c.9.6,1.8.8,2.7.8Z"/><path class="b" d="M834.6,440.9c-2.8,0-4.1-1.4-4.5-2.8-.1-.7-.1-1.4-.1-2s.1-1.2.1-1.6c0-3-.4-5.8-.5-8.7-.3-6.1-.4-12.3-.8-18.5-.4-6-.6-12-.9-18.1-.3-5.6-.6-11.4-.6-17.1s.9-2.4,2.9-2.4,2.6,1,2.6,2.2v1.3l.3,1.5v.8c.3,11.3,1.2,22.5,1.4,33.9.1,5.3.6,10.8.8,16.2,0,3.2.3,6.3.4,9.6v.8c0,.2.1.4.1.5h.4c3.7,0,7.8-.5,11.6-.5s1,.2,1.5.4c.4.1,1.4.6,1.4,1.4,0,1.2-1.9,3-3.7,3h-5.1c0,.1-7.3.1-7.3.1Z"/><path class="b" d="M876.2,374.3c0,5.4-.4,10.8-.8,16.1-.9,13-1.3,26.2-1.3,39.2v4.3c-.1.6-.1,1.3-.1,2s-.5,2.3-1.2,2.8c-.3.3-.8.8-1.7.8-1.3,0-1.9-.8-2.2-1.1-.4-.6-.5-1.2-.6-1.8-.1-1.2-.1-2.5-.1-2.9,0-9.9.1-19.9.5-29.6.1-4,.1-7.9.4-11.8.3-4.9.5-9.8,1-14.7.1-1.7.1-3.6.1-5.4s.5-1.8,2.3-1.8,2.8.7,3.3,2c.1.6.3,1.3.3,1.9Z"/><path class="b" d="M898.4,440.8c-1.3-5-1.3-10.2-1.3-15.3v-3.4l.3-6.8v-21.6c.1-1.1.1-2.4.1-3.6,0-5.9-.3-11.9-.3-17.9s.6-2,2.6-2,4.7,1,6.4,1.9c12.8,7.7,22.9,18,22.9,31s-.1,2.9-.3,4.3c-1.3,8.1-5.4,14.6-10.6,21.5-3.3,4.1-9.7,11.5-15,14.3l-.6.3c-.3.1-.6.2-1.2.2-1.2,0-1.8-.7-2.2-1.1-.4-.5-.6-1.2-.9-1.9ZM923.1,403.6c0-11.8-7.9-19.8-18.4-27.1-.5-.2-.9-.5-1.3-.6.1,1.3.3,2.9.3,4.3v8.6c0,7.8.4,15.5.4,23.1s-.5,10.1-.5,15.3,0,3.7.1,6.1c0,1.2,0,2.5.1,3.5,9.9-9.7,19.3-21.1,19.3-33.2Z"/><path class="b" d="M969.3,397c-.8.1-1.7.3-2.4.3s-1.5-.2-2.2-.2c-1.2,3.7-2,7.6-2.7,11.3-.5,3.2-1.4,10-2.7,16.8-1.2,6.7-2.6,13.4-4.1,16v.2c-.3.2-.4.5-.5.7-.4.5-1.2.8-2.2.8s-1.3-.3-1.5-.5c-.3-.3-.5-.6-.6-.9-.3-.5-.4-1.1-.4-1.5,0-.8.1-1.5.3-2.5.1-.8.4-1.6.5-2.4.9-5,2-10.2,3.2-15.4,1.7-7.2,2.6-14.5,4.5-21.8,1.4-5,2.7-9.8,4-14.8.8-3,1.8-6,2.4-9.1.3-1.2,1.2-2.3,3.3-2.3s2.6.7,3.1,1.4c1,1.5,1.7,4.2,2.2,7,.5,2.7.9,5.3,1.2,7,2.2,15.1,5,29.3,8.6,44.1.3,1.2.8,2.9,1.2,4.4.5,1.7.8,3.4.8,4.6s0,.9-.3,1.4c-.1.2-.3.6-.5.8-.1.2-.6.7-1.5.7s-1.9-.6-2.4-1.1c-.4-.5-.6-1.1-.9-1.5-1.7-4.3-2.8-8.9-3.8-13.2-1.9-8.3-3.6-16.1-5-24.4-.4-1.8-.8-3.9-1.3-5.8h0ZM966.2,391.7h.1q.1-.1.4-.1h.4c0-.1.1-.1.1-.1h1.3c0-1.7-.3-4.1-.6-6.3-.4,1.8-.9,3.7-1.4,5.5l-.4.9h0c0,.1.1.1.1.1Z"/><path class="b" d="M1014.4,432.5c.1-6.2.3-12.5.5-18.7.1-3.6.4-7.1.4-10.6s-.1-1.1-.4-1.6c-3.6-6.5-6.9-13-9.5-19.7-.4-1.2-1.3-3.1-2.2-5-.8-1.8-1.5-4-1.5-5.1s1.7-1.7,2.6-1.7,1.9.4,2.6,1.1c.1.1.1.2.3.4l.4.6c.4.6.8,1.3.9,1.9,2.2,4.6,4.2,9.2,6.1,13.8.9,2.3,1.8,4.5,2.8,6.7,1.2-2.7,2.8-7.1,4.6-11.4,2.3-5.1,4.7-10.4,6.1-12,.6-.8,1.7-1.2,2.8-1.2s2.2.5,2.2,1.5-.3,1-.5,1.4c-2.3,4.8-4.5,9.8-6.7,14.6-1.8,4.1-4,8.5-5.1,12.8-.1.6-.3,1.1-.3,1.7v2c0,9.4-.8,18.7-.8,28.2s0,4.1.3,6.2c0,1.3,0,3-.8,4.2-.1.1-.6.9-1.8.9-2,0-3.2-2.4-3.2-3.7v-7.5h.1Z"/><path class="b" d="M1078.3,385.2c-.3-.2-.5-.5-.5-.6-.5-.8-.9-2.3-1.3-3.6-.3-1.2-.5-2.7-.8-3.6-.5-2.5-3.2-4-6.8-4-7.8,0-8.3,6.6-8.3,11.3,0,7.7,3.2,14.7,6.4,21.9,3.3,7.3,6.7,14.8,6.7,22.6s-1.7,12-8.3,12-11.1-10.1-11.1-15.2.5-2.2,2.4-2.2,2.2.3,2.7,1.4c.4.7.5,1.5.5,2.3.1,3.1.9,6.9,4.1,8.4.4.2.8.3.9.3.3,0,.6-.1,1-.5.3-.3.6-1,.9-1.6.5-1.5.5-3.3.5-4,0-8.1-2.6-14.1-5.8-21.6-1.7-4.1-3.5-8.2-5-12.3-1.4-4.1-2.4-8.4-2.4-12.8,0-6.9,1.7-14.1,13.1-15.5.8-.1,1.4-.2,2.2-.2,6.1,0,10.8,3.8,12.3,7.8.6,1.6.9,3.7,1.2,5.3,0,1.5-.1,2.8-1,4.2-.3.3-.9.9-1.9.9s-.9-.3-1.2-.4c-.1-.1-.4-.3-.4-.4Z"/></svg>